<svg width="14" height="12" viewBox="0 0 14 12" fill="none" xmlns="http://www.w3.org/2000/svg">
<path d="M13.6667 3.73869V9.16669C13.6667 9.72011 13.455 10.2526 13.0749 10.6548C12.6948 11.0571 12.1752 11.2987 11.6227 11.33L11.5 11.3334H2.50004C1.94662 11.3334 1.41416 11.1216 1.01189 10.7416C0.609619 10.3615 0.36804 9.84189 0.336707 9.28935L0.333374 9.16669V3.73869L6.76804 7.10935C6.83963 7.14685 6.91923 7.16644 7.00004 7.16644C7.08085 7.16644 7.16046 7.14685 7.23204 7.10935L13.6667 3.73869ZM2.50004 0.666687H11.5C12.0371 0.666622 12.555 0.866017 12.9534 1.2262C13.3518 1.58638 13.6022 2.08167 13.656 2.61602L7.00004 6.10269L0.344041 2.61602C0.395723 2.1029 0.628741 1.62503 1.00121 1.26833C1.37367 0.911626 1.86116 0.699478 2.37604 0.67002L2.50004 0.666687H11.5H2.50004Z" fill="#1D71B8"/>
</svg>
