<svg width="14" height="14" viewBox="0 0 14 14" fill="none" xmlns="http://www.w3.org/2000/svg">
<path d="M9.16494 9.74002L10.2849 8.62002C10.4358 8.47104 10.6267 8.36906 10.8343 8.32646C11.042 8.28385 11.2576 8.30246 11.4549 8.38002L12.8199 8.92502C13.0193 9.00596 13.1903 9.14411 13.3113 9.32207C13.4324 9.50003 13.498 9.70983 13.4999 9.92502V12.425C13.4988 12.5714 13.468 12.7161 13.4095 12.8502C13.3509 12.9844 13.2659 13.1054 13.1594 13.2058C13.0528 13.3062 12.9271 13.3841 12.7897 13.4346C12.6523 13.4852 12.5062 13.5074 12.3599 13.5C2.79494 12.905 0.864945 4.80502 0.499945 1.70502C0.483001 1.55279 0.498482 1.39869 0.545369 1.25288C0.592256 1.10706 0.669486 0.972817 0.771978 0.858988C0.874471 0.74516 0.999904 0.654323 1.14002 0.592452C1.28014 0.530582 1.43178 0.49908 1.58494 0.50002H3.99994C4.21545 0.500658 4.42584 0.565754 4.60404 0.686935C4.78225 0.808116 4.92013 0.97984 4.99994 1.18002L5.54494 2.54502C5.62507 2.74155 5.64551 2.95734 5.60372 3.16543C5.56192 3.37351 5.45974 3.56467 5.30994 3.71502L4.18994 4.83502C4.18994 4.83502 4.83494 9.20002 9.16494 9.74002Z" fill="#1D71B8"/>
</svg>
